<?xml version="1.0" encoding="utf-8"?>
<!-- Generator: Adobe Illustrator 25.4.2, SVG Export Plug-In . SVG Version: 6.00 Build 0)  -->
<!DOCTYPE svg PUBLIC "-//W3C//DTD SVG 1.1//EN" "http://www.w3.org/Graphics/SVG/1.1/DTD/svg11.dtd" [
	<!ENTITY ns_extend "http://ns.adobe.com/Extensibility/1.0/">
	<!ENTITY ns_ai "http://ns.adobe.com/AdobeIllustrator/10.0/">
	<!ENTITY ns_graphs "http://ns.adobe.com/Graphs/1.0/">
	<!ENTITY ns_vars "http://ns.adobe.com/Variables/1.0/">
	<!ENTITY ns_imrep "http://ns.adobe.com/ImageReplacement/1.0/">
	<!ENTITY ns_sfw "http://ns.adobe.com/SaveForWeb/1.0/">
	<!ENTITY ns_custom "http://ns.adobe.com/GenericCustomNamespace/1.0/">
	<!ENTITY ns_adobe_xpath "http://ns.adobe.com/XPath/1.0/">
]>
<svg version="1.1" id="Capa_1" xmlns:x="&ns_extend;" xmlns:i="&ns_ai;" xmlns:graph="&ns_graphs;"
	 xmlns="http://www.w3.org/2000/svg" xmlns:xlink="http://www.w3.org/1999/xlink" x="0px" y="0px" viewBox="0 0 240.6 277"
	 style="enable-background:new 0 0 240.6 277;" xml:space="preserve">
<style type="text/css">
	.st0{fill:#ECEBDE;}
</style>
<metadata>
	<sfw  xmlns="&ns_sfw;">
		<slices></slices>
		<sliceSourceBounds  bottomLeftOrigin="true" height="277" width="240.6" x="-99.5" y="-3.1"></sliceSourceBounds>
	</sfw>
</metadata>
<g>
	<path class="st0" d="M134.1,131.7c5.9,0,11.7,0.7,17.2,2.1c5.5,1.4,10.9,2.9,16,4.5c5.1,1.7,10,3.2,14.7,4.5s8.9,2.1,12.9,2.1
		c3.2,0,6.6-0.6,10.2-1.9c3.6-1.3,7.1-3.5,10.5-6.7c3.4-3.2,6.7-7.6,9.8-13.2c3.1-5.6,5.7-12.8,7.7-21.6h7.4
		c-1.3,7.8-3.7,15.2-7.3,22.3c-3.6,7.1-8.2,13.3-13.9,18.7c-5.7,5.4-12.2,9.6-19.6,12.8c-7.4,3.1-15.6,4.7-24.5,4.7
		c-1.4,0-3-0.1-4.9-0.3c-1.9-0.2-4-0.7-6.3-1.5c2.4,5,4,9.7,4.9,14c0.9,4.3,1.3,8.8,1.3,13.5c0,12.2-2.4,23.8-7.1,34.8
		c-4.7,11-11.2,20.7-19.5,29.1c-8.2,8.4-17.8,15.1-28.7,20c-10.9,4.9-22.6,7.4-34.9,7.4c-10.4,0-20.4-1.8-30.1-5.5
		c-9.7-3.7-18.2-8.9-25.6-15.8c-7.4-6.9-13.3-15.2-17.8-25C2.2,221,0,210,0,197.8c0-12.8,2.5-24.6,7.5-35.4c5-10.8,12-20.3,21-28.4
		c9-8.1,19.8-14.7,32.4-19.7c12.6-5,26.4-8.2,41.5-9.4c-9.6-4.8-17-11.3-22.1-19.6c-5.1-8.3-7.7-17.3-7.7-27c0-8.7,2-16.6,6.1-23.8
		C82.7,27.1,88.1,21,94.9,16c6.8-5,14.7-8.9,23.6-11.7c8.9-2.8,18.2-4.2,28-4.2c8.6,0,16,1,22.2,3.1c6.2,2.1,11.4,4.8,15.4,8.2
		c4.1,3.4,7.1,7.3,9,11.7c1.9,4.4,2.9,8.9,2.9,13.5c0,4.1-0.8,8.3-2.3,12.4c-1.5,4.2-3.9,8.1-6.9,11.9c-3.1,3.8-7,7.2-11.7,10.3
		c-4.7,3.1-10.3,5.5-16.7,7.4l-2.6-5.1c5.6-1,10.5-2.8,14.7-5.4c4.2-2.6,7.6-5.6,10.4-9c2.7-3.4,4.8-7.1,6.2-11.1s2.1-7.8,2.1-11.6
		c0-3.9-0.8-7.6-2.3-11.2c-1.5-3.6-3.8-6.8-6.8-9.5c-3-2.7-6.7-4.9-11.3-6.5c-4.6-1.6-9.8-2.4-15.8-2.4c-8.3,0-16.2,1.6-23.5,4.7
		c-7.3,3.1-13.7,7.5-19.2,12.9c-5.5,5.5-9.8,11.9-13,19.3c-3.2,7.4-4.8,15.2-4.8,23.6c0,4.2,0.4,8.2,1.2,12c0.8,3.8,2,7.3,3.6,10.5
		c1.6,3.2,3.5,6,5.7,8.3c2.2,2.3,4.8,4.2,7.8,5.6c0.5-0.2,1.3-0.4,2.6-0.6c1.3-0.2,2.5-0.3,3.8-0.3c3.1,0,4.6,0.9,4.6,2.6
		c0,1.6-1.8,2.4-5.5,2.4c-0.9,0-1.9-0.1-3-0.2c-1.1-0.1-2-0.4-2.7-0.9c-12.6,1.4-24,4.7-34.2,9.9c-10.2,5.2-19,11.9-26.3,20.2
		c-7.3,8.2-12.9,17.9-16.9,28.9c-3.9,11-5.9,23.1-5.9,36.3c0,11.3,1.5,21.2,4.4,29.5c2.9,8.3,6.9,15.3,11.9,20.8
		c5,5.5,10.9,9.6,17.7,12.3c6.7,2.7,13.9,4,21.6,4c9.8,0,19.4-2.1,28.7-6.2c9.3-4.1,17.6-9.8,24.9-17.2c7.3-7.3,13.1-16,17.5-26.1
		c4.4-10.1,6.6-21,6.6-32.9c0-7.1-0.8-12.9-2.4-17.6c-1.6-4.6-3.8-8.3-6.6-11.1c-2.8-2.7-6.1-4.7-9.9-5.7c-3.8-1.1-7.9-1.6-12.3-1.6
		c-5.1,0-9.9,0.7-14.4,2.1c-4.5,1.4-8.3,3.4-11.7,6.2c-3.3,2.7-5.9,6.2-7.8,10.4c-1.9,4.2-2.8,9.1-2.8,14.7l-7.4,0.5
		c-0.1-1-0.2-2-0.3-2.8c-0.1-0.9-0.1-1.9-0.1-3.2c0-7.2,1.3-13.7,3.9-19.4c2.6-5.7,6.2-10.5,10.6-14.5c4.5-3.9,9.7-7,15.7-9.1
		C121,132.8,127.4,131.7,134.1,131.7z"/>
</g>
</svg>
