<?xml version="1.0" encoding="utf-8"?>
<!-- Generator: Adobe Illustrator 25.4.2, SVG Export Plug-In . SVG Version: 6.00 Build 0)  -->
<!DOCTYPE svg PUBLIC "-//W3C//DTD SVG 1.1//EN" "http://www.w3.org/Graphics/SVG/1.1/DTD/svg11.dtd" [
	<!ENTITY ns_extend "http://ns.adobe.com/Extensibility/1.0/">
	<!ENTITY ns_ai "http://ns.adobe.com/AdobeIllustrator/10.0/">
	<!ENTITY ns_graphs "http://ns.adobe.com/Graphs/1.0/">
	<!ENTITY ns_vars "http://ns.adobe.com/Variables/1.0/">
	<!ENTITY ns_imrep "http://ns.adobe.com/ImageReplacement/1.0/">
	<!ENTITY ns_sfw "http://ns.adobe.com/SaveForWeb/1.0/">
	<!ENTITY ns_custom "http://ns.adobe.com/GenericCustomNamespace/1.0/">
	<!ENTITY ns_adobe_xpath "http://ns.adobe.com/XPath/1.0/">
]>
<svg version="1.1" id="Capa_1" xmlns:x="&ns_extend;" xmlns:i="&ns_ai;" xmlns:graph="&ns_graphs;"
	 xmlns="http://www.w3.org/2000/svg" xmlns:xlink="http://www.w3.org/1999/xlink" x="0px" y="0px" viewBox="0 0 35.5 31.1"
	 style="enable-background:new 0 0 35.5 31.1;" xml:space="preserve">
<style type="text/css">
	.st0{fill:url(#SVGID_1_);}
</style>
<metadata>
	<sfw  xmlns="&ns_sfw;">
		<slices></slices>
		<sliceSourceBounds  bottomLeftOrigin="true" height="31.1" width="35.5" x="0.6" y="-0.8"></sliceSourceBounds>
	</sfw>
</metadata>
<g>
	
		<linearGradient id="SVGID_1_" gradientUnits="userSpaceOnUse" x1="-6764.0825" y1="947.5375" x2="-6692.9717" y2="925.3152" gradientTransform="matrix(-1 0 0 -1 -6703.2354 948.1615)">
		<stop  offset="0" style="stop-color:#A5845A"/>
		<stop  offset="9.194727e-02" style="stop-color:#BA9D71"/>
		<stop  offset="0.239" style="stop-color:#D8BF91"/>
		<stop  offset="0.3187" style="stop-color:#E3CC9D"/>
		<stop  offset="0.5153" style="stop-color:#CEB386"/>
		<stop  offset="0.8297" style="stop-color:#B09166"/>
		<stop  offset="1" style="stop-color:#A5845A"/>
	</linearGradient>
	<path class="st0" d="M26.3,0c1.5,0,2.9,0.3,4.1,1c2.1,1.3,3.6,3.4,4.4,6.5c0.9,3.1,0.9,6.2,0.1,9.5c-0.9,3.7-2.8,6.8-5.5,9.3
		c-2.7,2.4-5.8,4-9.3,4.8v-3.2c2.4-0.9,4.6-2.4,6.4-4.4c1.9-2.1,3.2-4.4,3.9-6.8c0.3-0.9,0.4-2,0.4-3.3c0-1.2-0.4-1.5-1.1-0.8
		c-1,0.6-2.2,0.9-3.4,0.9c-1.8,0.1-3.4-0.6-4.8-1.9c-1.4-1.4-2.1-3-2.1-4.8c0-2,0.6-3.6,1.9-4.9C22.8,0.7,24.4,0,26.3,0z M6.8,0
		c1.5,0,2.9,0.3,4.1,1c2.1,1.3,3.6,3.4,4.4,6.5c0.9,3.1,0.9,6.2,0.1,9.5c-0.9,3.7-2.8,6.8-5.5,9.3c-2.7,2.4-5.8,4-9.3,4.8v-3.2
		C3,27,5.2,25.5,7,23.5c1.9-2.1,3.2-4.4,3.9-6.8c0.3-0.9,0.4-2,0.4-3.3c0-1.2-0.4-1.5-1.1-0.8c-1,0.6-2.2,0.9-3.4,0.9
		C5,13.7,3.4,13,2.1,11.7C0.7,10.3,0,8.7,0,6.9c0-2,0.6-3.6,1.9-4.9C3.3,0.7,4.9,0,6.8,0z"/>
</g>
</svg>
